<svg width="13" height="15" viewBox="0 0 13 15" fill="none" xmlns="http://www.w3.org/2000/svg">
<path d="M0.251 0.0659919C0.327185 0.0224114 0.413499 -0.000347073 0.501268 4.00106e-06C0.589036 0.000355075 0.675166 0.0238033 0.751 0.0679919L8.594 4.64299L6.167 6.82699L-6.91287e-08 1.27699V0.499992C-7.25013e-05 0.411958 0.0230993 0.325466 0.0671728 0.249259C0.111246 0.173052 0.174659 0.109833 0.251 0.0659919ZM-6.91287e-08 2.62299V12.377L5.42 7.49999L-6.91287e-08 2.62299ZM-6.91287e-08 13.723V14.5C-2.61431e-05 14.588 0.0231612 14.6744 0.0672209 14.7505C0.11128 14.8267 0.174652 14.8899 0.250938 14.9337C0.327223 14.9775 0.413721 15.0004 0.501697 15.0001C0.589674 14.9998 0.676014 14.9763 0.752 14.932L8.594 10.357L6.167 8.17299L-6.91287e-08 13.723ZM9.501 9.82799L12.751 7.93199C12.8265 7.88797 12.8892 7.82492 12.9328 7.74912C12.9763 7.67332 12.9993 7.58742 12.9993 7.49999C12.9993 7.41257 12.9763 7.32667 12.9328 7.25087C12.8892 7.17507 12.8265 7.11201 12.751 7.06799L9.501 5.17199L6.914 7.49999L9.501 9.82799Z" fill="#FDFDFD"/>
</svg>
